# xmcd
#
# Track frame offsets: 
#        150
#        10099
#        22613
#        33318
#        44491
#        56599
#        68775
#        81404
#        94277
#        110457
#        121984
#        134258
#        143338
#        153754
#        164577
#        176661
#        185976
#        195094
#        209738
#        220521
#        233639
#        243624
#        254865
#        265526
#
# Disc length: 3724 seconds
#
# Revision: 3
# Processed by: cddbd v1.5.2PL0 Copyright (c) Steve Scherf et al.
# Submitted via: ExactAudioCopy v1.1
#
DISCID=4e0e8a18
DTITLE=Maddox Brothers and Rose - 6 Classic Albums Plus_CD4
DYEAR=2013
DGENRE=Country
TTITLE0=There's Better Times a-Comin'
TTITLE1=Conscience I'm Guilty
TTITLE2=Read My Letter Once Again
TTITLE3=Tall Man
TTITLE4=Early in The Morning
TTITLE5=What Am I Living For
TTITLE6=Jim Dandy
TTITLE7=North to Alaska
TTITLE8=Lonely Street
TTITLE9=Gotta Travel On
TTITLE10=Just One More Time
TTITLE11=Don't Tell Me Your Troubles
TTITLE12=Rollin' in my Sweet Baby's Arms
TTITLE13=Down, Down, Down
TTITLE14=My Rose of Old Kentucky
TTITLE15=Cotton Fields
TTITLE16=Uncle Pen
TTITLE17=I'll Meet You in Church Sunday Morning
TTITLE18=Old Slew Foot
TTITLE19=Each Season Changes You
TTITLE20=Blue Moon of Kentucky
TTITLE21=Footprints in The Snow
TTITLE22=Molly And Tenbrooks 
TTITLE23=The Old Crossroads is Waitin'
EXTD=
EXTT0=
EXTT1=
EXTT2=
EXTT3=
EXTT4=
EXTT5=
EXTT6=
EXTT7=
EXTT8=
EXTT9=
EXTT10=
EXTT11=
EXTT12=
EXTT13=
EXTT14=
EXTT15=
EXTT16=
EXTT17=
EXTT18=
EXTT19=
EXTT20=
EXTT21=
EXTT22=
EXTT23=
PLAYORDER=
